<?xml version="1.0" standalone="no"?>
<!DOCTYPE svg PUBLIC "-//W3C//DTD SVG 20010904//EN"
 "http://www.w3.org/TR/2001/REC-SVG-20010904/DTD/svg10.dtd">
<svg version="1.0" xmlns="http://www.w3.org/2000/svg"
 width="512.000000pt" height="512.000000pt" viewBox="0 0 512.000000 512.000000"
 preserveAspectRatio="xMidYMid meet">

<g transform="translate(0.000000,512.000000) scale(0.100000,-0.100000)"
fill="#000000" stroke="none">
<path d="M2406 5110 c-251 -40 -509 -184 -660 -369 -166 -202 -247 -423 -249
-676 -3 -246 67 -460 212 -652 144 -191 342 -325 579 -391 88 -24 113 -27 272
-27 151 0 186 3 260 23 310 84 558 285 694 565 204 415 122 903 -206 1228
-134 133 -302 228 -486 275 -109 28 -313 40 -416 24z"/>
<path d="M1590 2755 c-573 -99 -1015 -524 -1137 -1095 -16 -77 -18 -144 -18
-715 l0 -630 34 -70 c38 -76 103 -148 171 -188 103 -60 -1 -57 1920 -57 1921
0 1817 -3 1920 57 69 41 134 112 171 189 l34 69 0 630 c0 687 0 685 -61 872
-135 414 -473 752 -887 887 -193 63 -135 60 -1147 62 -723 2 -941 -1 -1000
-11z"/>
</g>
</svg>
